<svg xmlns="http://www.w3.org/2000/svg" width="91" height="84" viewBox="0 0 91 84" fill="none">
    <path fill-rule="evenodd" clip-rule="evenodd" d="M37.8141 26.285C37.8141 26.285 38.1097 3 42.5551 3C47.0006 3 47.1208 26.285 47.1208 26.285C47.1208 26.285 82.2987 49.3808 85.1492 51.7825C87.9998 54.1843 87.9998 60.7275 87.9998 60.7275L58.1326 49.4535L48.0492 47.6102C48.0492 47.6102 48.0492 57.4223 47.1208 67.7587C47.0582 68.4559 47.0752 68.7382 47 69.3847C47.9458 69.9325 54.1256 72.4041 55.3716 74.3128C56.6177 76.2214 56.9977 79.4335 57 81C55.7167 80.409 49.2531 77.7157 47 76.6466C45.5568 77.9964 43.4255 81 43.4255 81C43.4255 81 41.6666 77.9824 41 76.6466C36.7388 78.6029 34.6256 79.2463 31 81C31 78.9997 31.5433 75.6937 32.8252 74.0741C34.1072 72.4544 38.8882 70.5221 39.8757 70C39.774 69.1964 39.6114 68.6418 39.5343 67.7587C38.6561 57.6979 38.6561 47.6102 38.6561 47.6102L28.1768 49.4535L3.00298 60.7275C3.00298 60.7275 2.92467 53.7778 4.90138 51.7825C6.87809 49.7872 37.8141 26.285 37.8141 26.285Z" stroke="#88B9EE" stroke-width="5" stroke-linejoin="round"/>
</svg>